<svg xmlns="http://www.w3.org/2000/svg" viewBox="0 0 130.48 130.48"><defs><style>.cls-1{fill:#818383;stroke:#fff;stroke-miterlimit:10;stroke-width:2px;}.cls-2{fill:#fff;}</style></defs><g id="Layer_2" data-name="Layer 2"><g id="Layer_15" data-name="Layer 15"><circle class="cls-1" cx="65.24" cy="65.24" r="64.24"/></g><g id="Layer_5" data-name="Layer 5"><path class="cls-2" d="M92.46,64.83A29.41,29.41,0,0,0,91,62l.17-.09L65.25,22.06,39.3,61.88l.16.09a29.69,29.69,0,1,0,53,2.86Zm-16.75,24a15.47,15.47,0,0,1-9.38,2.92,18.46,18.46,0,0,1-4.68-.57A2.16,2.16,0,1,1,62.89,87c.12,0,6,1.6,10.32-1.67,3.33-2.49,5-7.36,5-14.34a2.17,2.17,0,0,1,4.32,0C82.51,79.44,80.19,85.42,75.71,88.81Z"/></g></g></svg>