<svg xmlns="http://www.w3.org/2000/svg" viewBox="0 0 130.48 130.48"><defs><style>.cls-1{fill:#fff;stroke:#818383;stroke-miterlimit:10;stroke-width:2px;}.cls-2{fill:none;}.cls-3{fill:#818383;}.cls-4{fill:#818484;}</style></defs><g id="Layer_2" data-name="Layer 2"><g id="Layer_5" data-name="Layer 5"><circle class="cls-1" cx="65.24" cy="65.24" r="64.24"/><path class="cls-2" d="M47.44,78.71a11.23,11.23,0,0,0,19.9-1.44h0A13.29,13.29,0,1,0,70.11,51a13.13,13.13,0,0,0-2.1.17h0a21.48,21.48,0,0,0-41.18,0h0a13.13,13.13,0,0,0-2.1-.17A13.29,13.29,0,1,0,27.5,77.27h0a11.23,11.23,0,0,0,19.9,1.44"/><path class="cls-3" d="M57,85.26a12.33,12.33,0,0,1-9.6-4.53,12.43,12.43,0,0,1-20.61-2.14,14.46,14.46,0,1,1-2.08-28.78c.43,0,.85,0,1.27.06a22.66,22.66,0,0,1,42.83,0c.43,0,.85-.06,1.28-.06A14.47,14.47,0,1,1,68,78.59,12.4,12.4,0,0,1,57,85.26Zm-9.58-7.73a1.18,1.18,0,0,1,1,.56,10.06,10.06,0,0,0,17.82-1.28,1.17,1.17,0,0,1,1.33-.69,12.46,12.46,0,0,0,2.52.26,12.11,12.11,0,0,0,0-24.21,13.56,13.56,0,0,0-1.92.15,1.18,1.18,0,0,1-1.32-.83,20.29,20.29,0,0,0-38.91,0,1.16,1.16,0,0,1-1.31.83,13.68,13.68,0,0,0-1.92-.15,12.11,12.11,0,0,0,0,24.21,12.46,12.46,0,0,0,2.52-.26,1.17,1.17,0,0,1,1.33.69A10.06,10.06,0,0,0,46.4,78.09a1.21,1.21,0,0,1,1-.56Z"/><path class="cls-4" d="M79.6,42.72A8.23,8.23,0,0,1,80.28,38a8.84,8.84,0,0,1,1.35-2.1l.43-.47c.14-.15.31-.28.47-.43a9.9,9.9,0,0,1,1-.79,9.6,9.6,0,0,1,5-1.53h.68l.67.06.34,0,.33.06.67.14.65.2.33.1.31.14c.21.09.43.17.63.27l.61.33a10.44,10.44,0,0,1,2.17,1.7,10.18,10.18,0,0,1,.91,1.06c.14.19.26.39.39.58s.25.4.36.61l.32.62.27.66.13.33.09.34c.07.23.14.45.19.68a11.27,11.27,0,0,1,.21,1.4l0,.71,0,.71v.36l0,.35c0,.24-.07.48-.1.71l-.17.7-.09.35-.11.33A11.22,11.22,0,0,1,97,48.83,9.72,9.72,0,0,1,96.14,50a9.82,9.82,0,0,1-1,1,10.89,10.89,0,0,1-2.41,1.55l-.33.15-.34.12c-.23.09-.45.17-.68.24a11.49,11.49,0,0,1-1.41.32l-.71.1-.72,0H87.3l-4.59-.09c-3.06-.08-6.12-.19-9.19-.35-6.12-.35-12.24-.81-18.36-1.73,6.12-.92,12.24-1.38,18.36-1.73,3.07-.17,6.13-.27,9.19-.35l4.59-.09h1.08l.43,0,.42-.07a7.18,7.18,0,0,0,.83-.19l.4-.15.2-.07.2-.1a6.61,6.61,0,0,0,3.81-5.35l0-.43V42.3a8.72,8.72,0,0,0-.08-.88L94.53,41l0-.21c0-.07,0-.14-.07-.21l-.13-.43-.17-.4a2.46,2.46,0,0,0-.19-.4c-.08-.13-.14-.27-.22-.4a8.86,8.86,0,0,0-.52-.73A6.81,6.81,0,0,0,91.88,37a7.44,7.44,0,0,0-7.3-.81,8.15,8.15,0,0,0-3.25,2.52c-.24.28-.4.6-.62.9l-.25.48-.13.25-.1.25A9.29,9.29,0,0,0,79.6,42.72Z"/><path class="cls-4" d="M100.4,53a8.5,8.5,0,0,1,.33-3.35,8.85,8.85,0,0,1,1.67-3,9.18,9.18,0,0,1,6.3-3.25,9.79,9.79,0,0,1,3.71.42,9.65,9.65,0,0,1,3.33,1.84,10,10,0,0,1,3.52,6.77,10.38,10.38,0,0,1-5.43,10,10.61,10.61,0,0,1-3.89,1.19l-1,.07h-.83l-1.65,0-3.31,0-6.61,0q-13.22,0-26.45-.47c-8.81-.34-17.63-.81-26.45-1.73,8.82-.91,17.64-1.39,26.45-1.72s17.64-.48,26.45-.47l6.61,0,3.31,0,1.65,0h.83l.64,0A6.7,6.7,0,0,0,114,57.37a6.85,6.85,0,0,0,1.8-4.74,7.27,7.27,0,0,0-.53-2.6,7.37,7.37,0,0,0-6.54-4.49,7.84,7.84,0,0,0-5.49,1.94A8.57,8.57,0,0,0,100.4,53Z"/><path class="cls-4" d="M100.4,80.29a9.17,9.17,0,0,0,.82,2.77,8.21,8.21,0,0,0,1.6,2.28,8.08,8.08,0,0,0,4.69,2.31,7.63,7.63,0,0,0,4.83-1.05A7.55,7.55,0,0,0,114.15,85a7.16,7.16,0,0,0,1.17-2.06,6.94,6.94,0,0,0,.4-2.29,6.61,6.61,0,0,0-.36-2.26,6.79,6.79,0,0,0-2.74-3.49,6.64,6.64,0,0,0-2-.85l-.26-.07-.28,0a4.87,4.87,0,0,0-.55-.06h-1.3l-5.9,0q-11.78,0-23.56-.47c-7.86-.34-15.72-.81-23.57-1.73C63,70.79,70.87,70.31,78.73,70s15.71-.47,23.56-.46l5.9,0h.73c.28,0,.61,0,.91,0a5.83,5.83,0,0,1,.91.12l.45.08.44.12A10.35,10.35,0,0,1,115,71.45a10.58,10.58,0,0,1,4.11,5.82,10.43,10.43,0,0,1-.56,7,10.16,10.16,0,0,1-4.81,4.87,9.75,9.75,0,0,1-6.6.63,9.33,9.33,0,0,1-5.21-3.65,8.92,8.92,0,0,1-1.28-2.83A8.65,8.65,0,0,1,100.4,80.29Z"/></g></g></svg>