<svg xmlns="http://www.w3.org/2000/svg" viewBox="0 0 130.48 130.48"><defs><style>.cls-1{fill:#fff;stroke:#818383;stroke-miterlimit:10;stroke-width:2px;}.cls-2{fill:#818484;}</style></defs><g id="Layer_2" data-name="Layer 2"><g id="Layer_15" data-name="Layer 15"><circle class="cls-1" cx="65.24" cy="65.24" r="64.24"/><path class="cls-2" d="M96.41,75.2a40.89,40.89,0,0,1,.5-11.46c.78-4.25,1.18-6.64,2.36-9.12a5.67,5.67,0,0,1-.69-.45,2.37,2.37,0,0,1-.48-.42,1.75,1.75,0,0,1-.32-.8,1.94,1.94,0,0,1,.12-1,3.21,3.21,0,0,1,.63-.95,2,2,0,0,0,.47-.67c0-.1.13-.42,0-.58s-.58,0-.72,0a2.2,2.2,0,0,0-.82.68,9.69,9.69,0,0,0-.7,1.07c-.35.57-.47.75-.7.8s-.47,0-.54-.18.14-.36.42-1a5.51,5.51,0,0,0,.32-.92,2.39,2.39,0,0,0,.18-1c0-.21,0-.46-.23-.57s-.71.05-.94.25-.19.2-.6.92c-.3.53-.45.8-.47.85-.28.55-.27.69-.48.87s-.65.34-.82.2-.09-.33,0-.78a3.91,3.91,0,0,1,.17-.84c.18-.55.34-.62.45-1.1,0-.23.13-.61,0-.72s-.54.15-.72.27a3.24,3.24,0,0,0-.77.83c-.47.63-.85,1.24-.87,1.27-.49.76-.6,1-.73,1s-.22-.57-.17-1a4.38,4.38,0,0,1,.52-1.32c.34-.71.51-1.06.4-1.2s-.57-.06-.62,0c-.39.12-.61.41-.92.88a11.16,11.16,0,0,0-1,1.54,12,12,0,0,1-.64,1.77c-.12.22-.44.78-.63.72s-.12-1-.1-1.27A9.22,9.22,0,0,1,88.58,48a5.43,5.43,0,0,1,2-2.27,6.5,6.5,0,0,1,1.79-.57c.43-.06.43,0,.57-.07.86-.41.31-2.13,1.13-2.77a2,2,0,0,1,1.67-.07,7.8,7.8,0,0,1,4.5,3.46,10.65,10.65,0,0,1,1.65,3.11,1.35,1.35,0,0,0,.47.9,1.41,1.41,0,0,0,1.17,0,10,10,0,0,1,12,1,9.41,9.41,0,0,1,3.14,7.08c0,.19,0,.75-.25.79s-.33-.1-1-1.44a15.44,15.44,0,0,0-2.2-3.94c-.19-.21-.46-.47-.65-.4s-.22,1-.19,1.35c0,.84.25,1.24.1,1.34s-.64-.23-1-.54a6.59,6.59,0,0,1-1.3-2.45c-.9-2.16-1.2-2.2-1.29-2.19-.27,0-.44.55-.45.6-.19.63.2,1.11,0,1.3s-.63-.07-.7-.1c-.64-.33-.58-.83-1.24-1.45a2.63,2.63,0,0,0-1.15-.65,1.58,1.58,0,0,0-1.45.2,1.42,1.42,0,0,0-.29,1.2,2.9,2.9,0,0,0,1.49,1.79,33,33,0,0,1,4.14,3.24,9.92,9.92,0,0,1,2.84,6.83c0,.43.08,2.9-1,3.34-.15.06-.52.16-.7,0s0-.82.1-1.05c.68-1.91-.81-4.84-1.14-4.78s-.2,1-.2,1c0,.75.2,1.09,0,1.3a.75.75,0,0,1-.85,0c-.37-.25-.31-.75-.4-1.75a20.16,20.16,0,0,0-.45-2.39,3.18,3.18,0,0,0-.84-1.89s-.48-.42-.65-.3,0,.41.15,1.35.14,1,0,1.09-.74,0-1.1-.2-.77-.66-1.39-2.64a11.36,11.36,0,0,0-.85-2.44c-.33-.56-.51-1.12-1-1.22a1.19,1.19,0,0,0-.68.12,2.18,2.18,0,0,0-.71,1.3,26.33,26.33,0,0,0-.63,12.31,29.5,29.5,0,0,0,2.79,8.62"/><path class="cls-2" d="M130.13,74.91H94.34a11.89,11.89,0,0,0-10,5.47l-1.42,2.21v.1a10.06,10.06,0,0,1-3.6,4c-1.75,1.08-3.45,1.3-5.88,1.46-5.57.35-8.35.53-10.62,0l.21.19a7.4,7.4,0,0,1-3.56-13.9l0,0a4.14,4.14,0,0,0-.75,2.4,4.22,4.22,0,1,0,8.43,0v-.22h0a7.5,7.5,0,0,0-.4-1.91l.11.34a10,10,0,0,0-2.51-4.29,10.53,10.53,0,0,0-7.3-2.93v0A16.29,16.29,0,0,0,41.75,78.75L42,78a15.74,15.74,0,0,1-2.6-8.59c0-7.09,4.91-13.26,12.16-16.44l-.22,0a4.22,4.22,0,1,0,7.69,2.4,1.7,1.7,0,0,0,0-.22,11.56,11.56,0,0,0-.62-4.61l.14.44a13,13,0,0,0-3.26-5.58,13.75,13.75,0,0,0-9.52-3.83H46A43.52,43.52,0,0,0,2.48,85.08,66.26,66.26,0,0,0,130.3,74.63"/></g></g></svg>