<svg xmlns="http://www.w3.org/2000/svg" viewBox="0 0 57.08 103.33"><defs><style>.cls-1{fill:#434444;}.cls-2{fill:#231f20;}</style></defs><g id="Layer_2" data-name="Layer 2"><g id="Layer_1-2" data-name="Layer 1"><g id="Layer_2-2" data-name="Layer 2"><g id="Layer_56" data-name="Layer 56"><path class="cls-1" d="M28.55,0A28.56,28.56,0,0,0,1.3,37.08c.22.73.48,1.46.77,2.16h0l26.59,64.09L55,39.24h0c.29-.71.55-1.43.78-2.17A28.56,28.56,0,0,0,28.55,0Zm0,54.46A26.08,26.08,0,1,1,54.63,28.38,26.08,26.08,0,0,1,28.55,54.46Z"/></g></g></g><g id="Layer_2-3" data-name="Layer 2"><circle class="cls-2" cx="19.74" cy="41.63" r="1.82"/><circle class="cls-2" cx="16.97" cy="38.96" r="3.28"/><circle class="cls-2" cx="14.6" cy="12.91" r="1.78"/><circle class="cls-2" cx="22.88" cy="44.72" r="1.31"/><circle class="cls-2" cx="10.44" cy="31.13" r="1.78"/><circle class="cls-2" cx="27.91" cy="19.16" r="8.21"/><circle class="cls-2" cx="21.06" cy="24.08" r="6.46"/><circle class="cls-2" cx="37.94" cy="22.75" r="5.4"/><circle class="cls-2" cx="27.53" cy="30.14" r="3.34"/><circle class="cls-2" cx="30.23" cy="35.9" r="3.97"/><circle class="cls-2" cx="34.92" cy="29.17" r="6.18"/><circle class="cls-2" cx="32.1" cy="40.5" r="2.82"/><path class="cls-2" d="M27.35,28.48c-1.82-2.08-3.48-4-3-6s3.15-3.5,5.08-3.81c3.9-.62,9.11,2.1,9.21,6.11.1,3.85-4.54,7.26-7.7,6.6C29.6,31.06,28.78,30.12,27.35,28.48Z"/></g></g></svg>