<svg xmlns="http://www.w3.org/2000/svg" viewBox="0 0 1930.1 1856.78"><defs><style>.cls-1{fill:#dadada;}.cls-2{fill:#95d2da;}.cls-3{fill:#f2f2f2;}.cls-4{fill:#85c7cc;}.cls-5{fill:#f9e98f;}.cls-6{fill:#eab886;}.cls-7{fill:#a38e36;}</style></defs><g id="Layer_2" data-name="Layer 2"><g id="Capa_1" data-name="Capa 1"><path class="cls-1" d="M1930.1,1268.69s-63.26,93.89-94.79,195.27c-28.78,92.51-39.42,191.92-39.42,191.92l-58.1,54.37s-52.87-102.58,13.59-282.15,150.9-273.27,150.9-273.27Z"/><path class="cls-1" d="M918.82,1656.74s134.34,15.14,243.15,66.66c84.46,40,156.91,115.69,156.91,115.69l74.66,2.76s-34.65-93.49-198.78-176.17-357.34-115.07-357.34-115.07Z"/><path class="cls-2" d="M1786.64,342.08c-38,139.69-103.34,154.59-103.34,154.59l-25.25-9.5-100-38.07-1.9-.73S1626.29,631.1,1714,789.86c104.47,189.43,200.52,320,188.63,373-12.06,53.05-186.1,248.36-164.84,547.41-57.61,48.83-261.31,147.58-343.53,130.27C1196,1587.09,876.94,1584.11,837.42,1550.61c-39.69-33.45-33-185-78.51-370.28C700,940.66,643,810.82,643,810.82L590.54,893.6l-14.57,23S465.07,902.06,397,854.8c-95.89-66.6-154.39-178.24-154.39-178.24s28.32-89.46,95-191.67q6.88-10.62,14.62-21.55C384.78,416.25,425.43,367.86,475,325c39.78-34.47,91-66,152-96.73,0,0,194.22-53.45,308.11-96.64,112.63-42.71,254.5-111.86,254.5-111.86,94.52-21,158.36-21.43,224.16-18.41,43.75,2,89.66,9.65,133.45,19.86,10.62,2.44,21.11,4.93,31.36,7.68,107.42,28,195.3,67.05,195.3,67.05S1824.66,202.4,1786.64,342.08Z"/><path class="cls-1" d="M1189.5,19.78S1047.62,88.92,935,131.62c-113.95,43.21-308,96.64-308,96.64-61,30.71.92,84.48.92,84.48s149.17-22.22,337.42-90.58S1238.21,81.31,1238.21,81.31,1284-1.17,1189.5,19.78Z"/><path class="cls-3" d="M1919.46,1225.14s-61.29,110.13-92.11,216.78c-28.12,97.32-31.46,214-31.46,214l-58.14,54.38s-49.16-108.88,15.42-297.92,145.13-288.23,145.13-288.23Z"/><path class="cls-3" d="M890.42,1621.56s143,16.34,258.22,77.73c89.42,47.65,165.43,139.31,165.43,139.31l79.58,2.15s-35.4-114.11-209.09-212.79-347.19-77.33-347.19-77.33Z"/><path class="cls-3" d="M1848.54,159s20.88,87-7.27,188.63-82.54,160.61-82.54,160.61l-75.45-11.58s47.44-66.69,78.57-179.52S1773.77,96,1773.77,96Z"/><path class="cls-3" d="M228.43,773.35s42.08,79,130.51,136.38,168.29,65.5,168.29,65.5L576,916.53s-79.73-18.47-177.85-82.28S242.6,676.59,242.6,676.59Z"/><path class="cls-3" d="M1189.5,19.79c45.36,149.82-31.78,312.26-180.34,368.6S692.37,370.47,627,228.26c0,0-12.81-3.26-53.1,20.14-26.16,15.18-31.57,27.28-31.57,27.28,83.24,189.07,303.59,271.6,499,197.5S1344.2,201,1281.15,4.32c0,0-18.26-4.43-51.92.93C1191.18,11.31,1189.5,19.79,1189.5,19.79Z"/><path class="cls-4" d="M643,810.82C612.89,670.8,423.37,498,352.22,463.34L337.6,484.89C382.05,546.75,537.24,724,590.54,893.6Z"/><path class="cls-4" d="M1658.05,487.17l-100-38.07c-58.78-121.72-38.19-344.51-11-427.89,10.62,2.44,21.11,4.93,31.36,7.68C1585,116.44,1590.25,334,1658.05,487.17Z"/><path class="cls-5" d="M285.66,1332.5c-36.19-27.36-56.74,79.16-141.09,115.91-29.94,13-63.38,18.07-91.22,35.15-46,28.22-70.18,94.87-39.93,141.54,48.78,75.28,122.28,70.36,204.65,41.31a88.67,88.67,0,0,1,19.37-4.44c76.14-8.76,150.66-3.1,178-85.1C478.34,1388.54,512.43,1504,285.66,1332.5Z"/><path class="cls-6" d="M422.11,1552.65a1.84,1.84,0,0,1-.75-.16,969.29,969.29,0,0,1-116.66-64.2C248.6,1452,201.51,1410.17,201,1409.75a1.89,1.89,0,0,1-.17-2.66,1.86,1.86,0,0,1,2.64-.16c.47.42,47.36,42.09,103.21,78.19a966.29,966.29,0,0,0,116.15,63.93,1.88,1.88,0,0,1-.76,3.6Z"/><path class="cls-7" d="M216.76,1397.19a1.94,1.94,0,0,1-1.27-.48,1.9,1.9,0,0,1-.14-2.67c8.62-9.57,18.25-20.68,27.56-31.43s19-21.9,27.61-31.49a1.88,1.88,0,0,1,2.8,2.52c-8.61,9.57-18.24,20.69-27.56,31.44s-19,21.89-27.6,31.49A1.91,1.91,0,0,1,216.76,1397.19Z"/><path class="cls-7" d="M240.7,1416.44a1.88,1.88,0,0,1-1.45-3.08c8-9.73,16.66-20.42,25-30.76s17-21,25.06-30.8a1.89,1.89,0,0,1,2.91,2.4c-8,9.74-16.68,20.43-25,30.77s-17,21-25,30.79A1.91,1.91,0,0,1,240.7,1416.44Z"/><path class="cls-7" d="M265.38,1438.25a1.86,1.86,0,0,1-1.14-.38,1.88,1.88,0,0,1-.36-2.64c7.6-10.06,16.06-21.43,24.24-32.44s16.65-22.39,24.27-32.47a1.89,1.89,0,0,1,3,2.28c-7.61,10.06-16.07,21.44-24.25,32.44s-16.65,22.4-24.27,32.47A1.86,1.86,0,0,1,265.38,1438.25Z"/><path class="cls-7" d="M292,1457.87a1.92,1.92,0,0,1-1.06-.33,1.88,1.88,0,0,1-.49-2.62c7.09-10.39,14.92-22,22.75-33.52s15.75-23.26,22.89-33.71a1.88,1.88,0,1,1,3.11,2.12c-7.13,10.45-15,22.08-22.88,33.71s-15.66,23.13-22.76,33.53A1.9,1.9,0,0,1,292,1457.87Z"/><path class="cls-7" d="M429.6,1531a2,2,0,0,1-.71-.14,1.88,1.88,0,0,1-1-2.46c4.9-11.95,10.75-25.48,16.41-38.55s11.48-26.54,16.37-38.45a1.88,1.88,0,0,1,3.48,1.43c-4.9,11.94-10.74,25.45-16.39,38.51s-11.49,26.57-16.39,38.49A1.88,1.88,0,0,1,429.6,1531Z"/><path class="cls-7" d="M401.87,1517.74a1.81,1.81,0,0,1-.79-.17,1.88,1.88,0,0,1-.92-2.5c5.29-11.45,11.17-23.87,16.85-35.89s11.59-24.48,16.89-36a1.89,1.89,0,0,1,3.42,1.59c-5.31,11.47-11.2,23.93-16.9,36s-11.55,24.43-16.84,35.86A1.88,1.88,0,0,1,401.87,1517.74Z"/><path class="cls-7" d="M371.51,1505a1.79,1.79,0,0,1-.86-.21,1.87,1.87,0,0,1-.81-2.53c5.76-11.22,12.34-23.77,18.7-35.9s13-24.73,18.75-36a1.89,1.89,0,0,1,3.35,1.73c-5.78,11.24-12.38,23.82-18.76,36s-12.93,24.67-18.69,35.87A1.9,1.9,0,0,1,371.51,1505Z"/><path class="cls-7" d="M342.31,1489.51a1.88,1.88,0,0,1-1.63-2.82c6.29-10.9,13.31-23,20.34-35s14.13-24.28,20.45-35.24a1.88,1.88,0,1,1,3.26,1.89c-6.32,11-13.39,23.11-20.46,35.25s-14,24.13-20.33,35A1.87,1.87,0,0,1,342.31,1489.51Z"/><path class="cls-7" d="M318,1475.27a1.84,1.84,0,0,1-1-.29,1.88,1.88,0,0,1-.6-2.59c6.69-10.71,14.25-22.75,21.81-34.8s15.12-24.09,21.8-34.79a1.89,1.89,0,1,1,3.2,2c-6.69,10.7-14.25,22.75-21.81,34.79s-15.12,24.09-21.8,34.79A1.87,1.87,0,0,1,318,1475.27Z"/><path class="cls-6" d="M415.47,1566.38c-27.37,82-101.89,76.34-178,85.1a88.67,88.67,0,0,0-19.37,4.44c-82.37,29-155.87,34-204.65-41.31A84,84,0,0,1,.24,1574.48C-1,1593.09,2.9,1611.73,13.42,1628c48.78,75.28,122.28,70.36,204.65,41.31a88.67,88.67,0,0,1,19.37-4.44c76.14-8.76,150.66-3.1,178-85.1,29.35-87.91,52.42-109.63,45.62-125.25C456.29,1471.24,437.68,1499.86,415.47,1566.38Z"/><path class="cls-6" d="M419.58,1555.1a1.85,1.85,0,0,1-.76-.16,970.48,970.48,0,0,1-116.65-64.2c-56.11-36.26-103.2-78.12-103.67-78.54a1.89,1.89,0,0,1-.16-2.66,1.85,1.85,0,0,1,2.63-.16c.47.42,47.36,42.09,103.21,78.19a968,968,0,0,0,116.15,63.93,1.88,1.88,0,0,1-.75,3.6Z"/><path class="cls-6" d="M201.3,1407.14l-5.94,5.59s113.84,114,223.38,150l3.37-10"/><path class="cls-5" d="M201.44,1390.74l62.64-75.89a12.18,12.18,0,0,1,16-2.45s43.22,39.35,89.38,69.37c52.24,34,108.07,59,108.07,59A12.17,12.17,0,0,1,482,1456l-40.18,88.38a12.17,12.17,0,0,1-17.65,5.21,971,971,0,0,1-117.49-64.07,922.49,922.49,0,0,1-102.43-76.82A12.17,12.17,0,0,1,201.44,1390.74Z"/><path class="cls-6" d="M216.76,1397.19a1.94,1.94,0,0,1-1.27-.48,1.9,1.9,0,0,1-.14-2.67c8.62-9.57,18.25-20.68,27.56-31.43s19-21.9,27.61-31.49a1.88,1.88,0,0,1,2.8,2.52c-8.61,9.57-18.24,20.69-27.56,31.44s-19,21.89-27.6,31.49A1.91,1.91,0,0,1,216.76,1397.19Z"/><path class="cls-6" d="M240.7,1416.44a1.88,1.88,0,0,1-1.45-3.08c8-9.73,16.66-20.42,25-30.76s17-21,25.06-30.8a1.89,1.89,0,0,1,2.91,2.4c-8,9.74-16.68,20.43-25,30.77s-17,21-25,30.79A1.91,1.91,0,0,1,240.7,1416.44Z"/><path class="cls-6" d="M265.38,1438.25a1.86,1.86,0,0,1-1.14-.38,1.88,1.88,0,0,1-.36-2.64c7.6-10.06,16.06-21.43,24.24-32.44s16.65-22.39,24.27-32.47a1.89,1.89,0,0,1,3,2.28c-7.61,10.06-16.07,21.44-24.25,32.44s-16.65,22.4-24.27,32.47A1.86,1.86,0,0,1,265.38,1438.25Z"/><path class="cls-6" d="M292,1457.87a1.92,1.92,0,0,1-1.06-.33,1.88,1.88,0,0,1-.49-2.62c7.09-10.39,14.92-22,22.75-33.52s15.75-23.26,22.89-33.71a1.88,1.88,0,1,1,3.11,2.12c-7.13,10.45-15,22.08-22.88,33.71s-15.66,23.13-22.76,33.53A1.9,1.9,0,0,1,292,1457.87Z"/><path class="cls-6" d="M429.6,1531a2,2,0,0,1-.71-.14,1.88,1.88,0,0,1-1-2.46c4.9-11.95,10.75-25.48,16.41-38.55s11.48-26.54,16.37-38.45a1.88,1.88,0,0,1,3.48,1.43c-4.9,11.94-10.74,25.45-16.39,38.51s-11.49,26.57-16.39,38.49A1.88,1.88,0,0,1,429.6,1531Z"/><path class="cls-6" d="M401.87,1517.74a1.81,1.81,0,0,1-.79-.17,1.88,1.88,0,0,1-.92-2.5c5.29-11.45,11.17-23.87,16.85-35.89s11.59-24.48,16.89-36a1.89,1.89,0,0,1,3.42,1.59c-5.31,11.47-11.2,23.93-16.9,36s-11.55,24.43-16.84,35.86A1.88,1.88,0,0,1,401.87,1517.74Z"/><path class="cls-6" d="M371.51,1505a1.79,1.79,0,0,1-.86-.21,1.87,1.87,0,0,1-.81-2.53c5.76-11.22,12.34-23.77,18.7-35.9s13-24.73,18.75-36a1.89,1.89,0,0,1,3.35,1.73c-5.78,11.24-12.38,23.82-18.76,36s-12.93,24.67-18.69,35.87A1.9,1.9,0,0,1,371.51,1505Z"/><path class="cls-6" d="M342.31,1489.51a1.88,1.88,0,0,1-1.63-2.82c6.29-10.9,13.31-23,20.34-35s14.13-24.28,20.45-35.24a1.88,1.88,0,1,1,3.26,1.89c-6.32,11-13.39,23.11-20.46,35.25s-14,24.13-20.33,35A1.87,1.87,0,0,1,342.31,1489.51Z"/><path class="cls-6" d="M318,1475.27a1.84,1.84,0,0,1-1-.29,1.88,1.88,0,0,1-.6-2.59c6.69-10.71,14.25-22.75,21.81-34.8s15.12-24.09,21.8-34.79a1.89,1.89,0,1,1,3.2,2c-6.69,10.7-14.25,22.75-21.81,34.79s-15.12,24.09-21.8,34.79A1.87,1.87,0,0,1,318,1475.27Z"/><path class="cls-5" d="M553.83,1459.89c-43-14.61-29,93-97.52,154.36-24.33,21.8-54.5,37.08-75.56,62-34.83,41.26-36.82,112.12,6.56,146.92,70,56.14,138.2,28.37,207.27-25.08a88.11,88.11,0,0,1,17-10.31c69.54-32.24,142.06-50.29,142.28-136.73C754.36,1452.54,823,1551.41,553.83,1459.89Z"/><path class="cls-6" d="M752.54,1626a1.75,1.75,0,0,1-.76.08,969,969,0,0,1-130.92-24.29c-64.66-16.8-122.52-41.74-123.1-42a1.91,1.91,0,0,1-1-2.48,1.86,1.86,0,0,1,2.45-1c.58.25,58.19,25.07,122.56,41.8a965.91,965.91,0,0,0,130.35,24.19,1.89,1.89,0,0,1,.41,3.66Z"/><path class="cls-7" d="M508.74,1543a1.88,1.88,0,0,1-2.32-2.55c5.17-11.79,10.82-25.37,16.28-38.5s11.13-26.74,16.32-38.57a1.88,1.88,0,0,1,3.45,1.51c-5.17,11.8-10.82,25.37-16.29,38.51s-11.12,26.74-16.31,38.57A1.85,1.85,0,0,1,508.74,1543Z"/><path class="cls-7" d="M537.52,1553.7a1.8,1.8,0,0,1-1.27,0,1.88,1.88,0,0,1-1.08-2.44c4.55-11.76,9.4-24.62,14.1-37.06s9.55-25.34,14.11-37.12a1.89,1.89,0,0,1,3.52,1.37c-4.56,11.76-9.41,24.63-14.11,37.08s-9.55,25.32-14.1,37.1A1.92,1.92,0,0,1,537.52,1553.7Z"/><path class="cls-7" d="M567.8,1566.66a1.89,1.89,0,0,1-2.38-2.4c4.07-11.94,8.52-25.4,12.83-38.42s8.77-26.49,12.84-38.45a1.89,1.89,0,0,1,3.57,1.22c-4.07,11.94-8.52,25.4-12.83,38.42s-8.77,26.49-12.84,38.44A1.88,1.88,0,0,1,567.8,1566.66Z"/><path class="cls-7" d="M599.2,1576.93a1.9,1.9,0,0,1-1.11,0,1.88,1.88,0,0,1-1.29-2.33c3.47-12.1,7.27-25.54,11.07-39s7.64-27,11.13-39.21a1.89,1.89,0,0,1,3.63,1c-3.49,12.16-7.31,25.68-11.14,39.19s-7.6,26.88-11.07,39A1.89,1.89,0,0,1,599.2,1576.93Z"/><path class="cls-7" d="M752.84,1603.07a1.77,1.77,0,0,1-.73.09,1.87,1.87,0,0,1-1.74-2c.9-12.89,2.2-27.56,3.46-41.76s2.56-28.8,3.46-41.63a1.88,1.88,0,0,1,3.76.26c-.9,12.87-2.2,27.53-3.46,41.71s-2.57,28.83-3.46,41.68A1.89,1.89,0,0,1,752.84,1603.07Z"/><path class="cls-7" d="M722.35,1599.23a1.78,1.78,0,0,1-.8.08,1.87,1.87,0,0,1-1.66-2.08c1.43-12.53,3.11-26.18,4.73-39.37s3.3-26.88,4.73-39.43a1.89,1.89,0,0,1,3.75.43c-1.44,12.56-3.12,26.24-4.74,39.46s-3.3,26.82-4.73,39.33A1.86,1.86,0,0,1,722.35,1599.23Z"/><path class="cls-7" d="M689.52,1596.64a1.89,1.89,0,0,1-2.45-2.08c1.94-12.46,4.25-26.44,6.48-40s4.54-27.56,6.49-40a1.88,1.88,0,1,1,3.72.59c-2,12.49-4.26,26.51-6.49,40.06s-4.53,27.48-6.48,39.93A1.89,1.89,0,0,1,689.52,1596.64Z"/><path class="cls-7" d="M656.94,1591.15a1.9,1.9,0,0,1-2.44-2.17c2.55-12.33,5.43-26,8.3-39.67s5.79-27.49,8.35-39.88a1.88,1.88,0,0,1,3.69.77c-2.56,12.39-5.46,26.14-8.35,39.89s-5.75,27.33-8.3,39.65A1.89,1.89,0,0,1,656.94,1591.15Z"/><path class="cls-7" d="M629.38,1585.27a2,2,0,0,1-1,0A1.88,1.88,0,0,1,627,1583c3-12.26,6.37-26.08,9.76-39.89s6.79-27.61,9.77-39.88a1.88,1.88,0,1,1,3.66.9c-3,12.26-6.37,26.07-9.77,39.88s-6.78,27.62-9.76,39.88A1.9,1.9,0,0,1,629.38,1585.27Z"/><path class="cls-6" d="M750.55,1641.13c-.22,86.44-72.74,104.49-142.28,136.73a88.72,88.72,0,0,0-17,10.31C522.22,1841.62,454,1869.39,384,1813.25a84.06,84.06,0,0,1-25.13-34c4.64,18.06,14.24,34.52,29.32,46.63,70,56.13,138.2,28.37,207.27-25.09a88.61,88.61,0,0,1,17-10.31c69.54-32.24,142.06-50.28,142.28-136.72.24-92.69,15.31-120.56,4-133.24C759.41,1538,750.73,1571,750.55,1641.13Z"/><path class="cls-6" d="M750.9,1629.13a1.9,1.9,0,0,1-.76.09,971.1,971.1,0,0,1-130.92-24.29c-64.66-16.81-122.52-41.74-123.1-42a1.9,1.9,0,0,1-1-2.48,1.86,1.86,0,0,1,2.45-1c.58.25,58.19,25.07,122.56,41.8a965.91,965.91,0,0,0,130.35,24.19,1.88,1.88,0,0,1,1.68,2.06A1.85,1.85,0,0,1,750.9,1629.13Z"/><path class="cls-6" d="M497.19,1557.26l-3.88,7.17s143.9,72.47,259.18,72.16l0-10.58"/><path class="cls-5" d="M492.17,1541.64l35.62-91.73a12.19,12.19,0,0,1,14.45-7.37s53.4,23.78,106.65,37.77C709.16,1496.15,770,1502.4,770,1502.4a12.18,12.18,0,0,1,9,13.08L768.68,1612a12.18,12.18,0,0,1-15.12,10.49,970.37,970.37,0,0,1-131.67-23.91,922.59,922.59,0,0,1-121.39-40.74A12.17,12.17,0,0,1,492.17,1541.64Z"/><path class="cls-6" d="M508.74,1543a1.88,1.88,0,0,1-2.32-2.55c5.17-11.79,10.82-25.37,16.28-38.5s11.13-26.74,16.32-38.57a1.88,1.88,0,0,1,3.45,1.51c-5.17,11.8-10.82,25.37-16.29,38.51s-11.12,26.74-16.31,38.57A1.85,1.85,0,0,1,508.74,1543Z"/><path class="cls-6" d="M537.52,1553.7a1.8,1.8,0,0,1-1.27,0,1.88,1.88,0,0,1-1.08-2.44c4.55-11.76,9.4-24.62,14.1-37.06s9.55-25.34,14.11-37.12a1.89,1.89,0,0,1,3.52,1.37c-4.56,11.76-9.41,24.63-14.11,37.08s-9.55,25.32-14.1,37.1A1.92,1.92,0,0,1,537.52,1553.7Z"/><path class="cls-6" d="M567.8,1566.66a1.89,1.89,0,0,1-2.38-2.4c4.07-11.94,8.52-25.4,12.83-38.42s8.77-26.49,12.84-38.45a1.89,1.89,0,0,1,3.57,1.22c-4.07,11.94-8.52,25.4-12.83,38.42s-8.77,26.49-12.84,38.44A1.88,1.88,0,0,1,567.8,1566.66Z"/><path class="cls-6" d="M599.2,1576.93a1.9,1.9,0,0,1-1.11,0,1.88,1.88,0,0,1-1.29-2.33c3.47-12.1,7.27-25.54,11.07-39s7.64-27,11.13-39.21a1.89,1.89,0,0,1,3.63,1c-3.49,12.16-7.31,25.68-11.14,39.19s-7.6,26.88-11.07,39A1.89,1.89,0,0,1,599.2,1576.93Z"/><path class="cls-6" d="M752.84,1603.07a1.77,1.77,0,0,1-.73.09,1.87,1.87,0,0,1-1.74-2c.9-12.89,2.2-27.56,3.46-41.76s2.56-28.8,3.46-41.63a1.88,1.88,0,0,1,3.76.26c-.9,12.87-2.2,27.53-3.46,41.71s-2.57,28.83-3.46,41.68A1.89,1.89,0,0,1,752.84,1603.07Z"/><path class="cls-6" d="M722.35,1599.23a1.78,1.78,0,0,1-.8.08,1.87,1.87,0,0,1-1.66-2.08c1.43-12.53,3.11-26.18,4.73-39.37s3.3-26.88,4.73-39.43a1.89,1.89,0,0,1,3.75.43c-1.44,12.56-3.12,26.24-4.74,39.46s-3.3,26.82-4.73,39.33A1.86,1.86,0,0,1,722.35,1599.23Z"/><path class="cls-6" d="M689.52,1596.64a1.89,1.89,0,0,1-2.45-2.08c1.94-12.46,4.25-26.44,6.48-40s4.54-27.56,6.49-40a1.88,1.88,0,1,1,3.72.59c-2,12.49-4.26,26.51-6.49,40.06s-4.53,27.48-6.48,39.93A1.89,1.89,0,0,1,689.52,1596.64Z"/><path class="cls-6" d="M656.94,1591.15a1.9,1.9,0,0,1-2.44-2.17c2.55-12.33,5.43-26,8.3-39.67s5.79-27.49,8.35-39.88a1.88,1.88,0,0,1,3.69.77c-2.56,12.39-5.46,26.14-8.35,39.89s-5.75,27.33-8.3,39.65A1.89,1.89,0,0,1,656.94,1591.15Z"/><path class="cls-6" d="M629.38,1585.27a2,2,0,0,1-1,0A1.88,1.88,0,0,1,627,1583c3-12.26,6.37-26.08,9.76-39.89s6.79-27.61,9.77-39.88a1.88,1.88,0,1,1,3.66.9c-3,12.26-6.37,26.07-9.77,39.88s-6.78,27.62-9.76,39.88A1.9,1.9,0,0,1,629.38,1585.27Z"/></g><g id="Layer_2-2" data-name="Layer 2"><path class="cls-5" d="M1284.22,1492.1a28.93,28.93,0,1,1-37.31-16.8A28.93,28.93,0,0,1,1284.22,1492.1Z"/><path class="cls-5" d="M1416.45,1535.16a28.94,28.94,0,1,1-37.32-16.8A28.93,28.93,0,0,1,1416.45,1535.16Z"/><path class="cls-5" d="M1488.27,1405.71a28.94,28.94,0,1,1-37.31-16.79A28.94,28.94,0,0,1,1488.27,1405.71Z"/><path class="cls-5" d="M1718.83,1331a28.93,28.93,0,1,1-37.32-16.8A28.93,28.93,0,0,1,1718.83,1331Z"/><path class="cls-5" d="M1633.56,1454.65a28.94,28.94,0,1,1-37.31-16.79A28.92,28.92,0,0,1,1633.56,1454.65Z"/><path class="cls-5" d="M1224.11,1330a28.94,28.94,0,1,1-37.31-16.8A28.93,28.93,0,0,1,1224.11,1330Z"/><path class="cls-5" d="M1356,1372a28.94,28.94,0,1,1-37.32-16.79A28.94,28.94,0,0,1,1356,1372Z"/><path class="cls-5" d="M1164.07,1168.06a28.94,28.94,0,1,1-37.31-16.79A28.94,28.94,0,0,1,1164.07,1168.06Z"/><path class="cls-5" d="M1296.29,1211.12a28.93,28.93,0,1,1-37.31-16.79A28.93,28.93,0,0,1,1296.29,1211.12Z"/><path class="cls-5" d="M1138.46,1452.64a28.94,28.94,0,1,1-37.32-16.8A28.93,28.93,0,0,1,1138.46,1452.64Z"/><path class="cls-5" d="M1078.81,1291.77a28.94,28.94,0,1,1-37.32-16.8A28.93,28.93,0,0,1,1078.81,1291.77Z"/><path class="cls-5" d="M1368.12,1081.68a28.94,28.94,0,1,1-37.32-16.8A28.92,28.92,0,0,1,1368.12,1081.68Z"/><path class="cls-5" d="M1428.55,1244.64a28.94,28.94,0,1,1-37.32-16.79A28.94,28.94,0,0,1,1428.55,1244.64Z"/><path class="cls-5" d="M933.52,1242.83A28.94,28.94,0,1,1,896.2,1226,28.93,28.93,0,0,1,933.52,1242.83Z"/><path class="cls-5" d="M993.94,1405.79A28.94,28.94,0,1,1,956.63,1389,28.92,28.92,0,0,1,993.94,1405.79Z"/><path class="cls-5" d="M1658.71,1168.83a28.93,28.93,0,1,1-37.31-16.8A28.92,28.92,0,0,1,1658.71,1168.83Z"/><path class="cls-5" d="M1790.55,1210.85a28.93,28.93,0,1,1-37.32-16.8A28.93,28.93,0,0,1,1790.55,1210.85Z"/><path class="cls-5" d="M1598.68,1006.91a28.94,28.94,0,1,1-37.32-16.79A28.94,28.94,0,0,1,1598.68,1006.91Z"/><path class="cls-5" d="M1730.9,1050a28.94,28.94,0,1,1-37.32-16.79A28.94,28.94,0,0,1,1730.9,1050Z"/><path class="cls-5" d="M1573.06,1291.49a28.94,28.94,0,1,1-37.31-16.8A28.93,28.93,0,0,1,1573.06,1291.49Z"/><path class="cls-5" d="M1513.41,1130.62a28.94,28.94,0,1,1-37.31-16.8A28.93,28.93,0,0,1,1513.41,1130.62Z"/><path class="cls-5" d="M1103.57,1004.9a28.94,28.94,0,1,1-37.31-16.8A28.92,28.92,0,0,1,1103.57,1004.9Z"/><path class="cls-5" d="M1235.41,1046.92a28.93,28.93,0,1,1-37.32-16.8A28.93,28.93,0,0,1,1235.41,1046.92Z"/><path class="cls-5" d="M1163.61,1166.82a28.93,28.93,0,1,1-37.31-16.8A28.93,28.93,0,0,1,1163.61,1166.82Z"/><path class="cls-5" d="M1043.53,843a28.93,28.93,0,1,1-37.31-16.79A28.93,28.93,0,0,1,1043.53,843Z"/><path class="cls-5" d="M1175.76,886a28.94,28.94,0,1,1-37.32-16.79A28.94,28.94,0,0,1,1175.76,886Z"/><path class="cls-5" d="M1017.92,1127.56a28.94,28.94,0,1,1-37.31-16.8A28.92,28.92,0,0,1,1017.92,1127.56Z"/><path class="cls-5" d="M958.27,966.69A28.94,28.94,0,1,1,921,949.89,28.92,28.92,0,0,1,958.27,966.69Z"/><path class="cls-5" d="M1247.58,756.6a28.94,28.94,0,1,1-37.31-16.8A28.92,28.92,0,0,1,1247.58,756.6Z"/><path class="cls-5" d="M1308,919.56a28.94,28.94,0,1,1-37.32-16.79A28.94,28.94,0,0,1,1308,919.56Z"/><path class="cls-5" d="M1368,1081.48a28.93,28.93,0,1,1-37.31-16.8A28.92,28.92,0,0,1,1368,1081.48Z"/><path class="cls-5" d="M813,917.75A28.94,28.94,0,1,1,775.66,901,28.93,28.93,0,0,1,813,917.75Z"/><path class="cls-5" d="M873.4,1080.71a28.94,28.94,0,1,1-37.31-16.79A28.94,28.94,0,0,1,873.4,1080.71Z"/><path class="cls-5" d="M933.44,1242.63a28.94,28.94,0,1,1-37.31-16.8A28.93,28.93,0,0,1,933.44,1242.63Z"/><path class="cls-5" d="M1538.18,843.75a28.94,28.94,0,1,1-37.32-16.8A28.93,28.93,0,0,1,1538.18,843.75Z"/><path class="cls-5" d="M1670,885.77A28.93,28.93,0,1,1,1632.7,869,28.92,28.92,0,0,1,1670,885.77Z"/><path class="cls-5" d="M1598.21,1005.67a28.93,28.93,0,1,1-37.31-16.8A28.93,28.93,0,0,1,1598.21,1005.67Z"/><path class="cls-5" d="M1478.14,681.83A28.94,28.94,0,1,1,1440.82,665,28.94,28.94,0,0,1,1478.14,681.83Z"/><path class="cls-5" d="M1610.36,724.89a28.94,28.94,0,1,1-37.31-16.79A28.93,28.93,0,0,1,1610.36,724.89Z"/><path class="cls-5" d="M1452.52,966.41a28.94,28.94,0,1,1-37.31-16.8A28.92,28.92,0,0,1,1452.52,966.41Z"/><path class="cls-5" d="M1392.87,805.54a28.94,28.94,0,1,1-37.31-16.8A28.93,28.93,0,0,1,1392.87,805.54Z"/><path class="cls-5" d="M983.42,680.87a28.93,28.93,0,1,1-37.31-16.8A28.93,28.93,0,0,1,983.42,680.87Z"/><path class="cls-5" d="M1115.26,722.88a28.94,28.94,0,1,1-37.32-16.79A28.94,28.94,0,0,1,1115.26,722.88Z"/><path class="cls-5" d="M1055.61,562a28.94,28.94,0,1,1-37.32-16.79A28.93,28.93,0,0,1,1055.61,562Z"/><path class="cls-5" d="M897.77,803.52a28.94,28.94,0,1,1-37.31-16.79A28.93,28.93,0,0,1,897.77,803.52Z"/><path class="cls-5" d="M838.12,642.65a28.94,28.94,0,1,1-37.32-16.79A28.94,28.94,0,0,1,838.12,642.65Z"/><path class="cls-5" d="M1187.86,595.53a28.94,28.94,0,1,1-37.32-16.8A28.93,28.93,0,0,1,1187.86,595.53Z"/><path class="cls-5" d="M712.76,613.83a28.47,28.47,0,1,1-36.71-16.52A28.48,28.48,0,0,1,712.76,613.83Z"/><path class="cls-5" d="M772.21,774.17a28.47,28.47,0,1,1-36.71-16.52A28.46,28.46,0,0,1,772.21,774.17Z"/><path class="cls-5" d="M1418,519.72a28.93,28.93,0,1,1-37.32-16.8A28.93,28.93,0,0,1,1418,519.72Z"/><path class="cls-5" d="M1549.86,561.73a28.94,28.94,0,1,1-37.31-16.79A28.94,28.94,0,0,1,1549.86,561.73Z"/><path class="cls-5" d="M1358,357.8a28.94,28.94,0,1,1-37.32-16.8A28.93,28.93,0,0,1,1358,357.8Z"/><path class="cls-5" d="M1490.21,400.86a28.94,28.94,0,1,1-37.32-16.79A28.92,28.92,0,0,1,1490.21,400.86Z"/><path class="cls-5" d="M1332.37,642.38a28.93,28.93,0,1,1-37.31-16.8A28.93,28.93,0,0,1,1332.37,642.38Z"/><path class="cls-5" d="M1272.72,481.5a28.94,28.94,0,1,1-37.31-16.79A28.94,28.94,0,0,1,1272.72,481.5Z"/></g></g></svg>