<svg xmlns="http://www.w3.org/2000/svg" viewBox="0 0 1798.62 1803.01"><defs><style>.cls-1{fill:#bbe1e6;}.cls-2{fill:#fddab0;}.cls-3{fill:#95d2da;}.cls-4{fill:#85c7cc;}.cls-5{fill:#68bdbc;}.cls-6{fill:#f7c18f;}.cls-7{fill:#a2d7df;}.cls-8{fill:#75b6b8;}.cls-9{fill:#53a2a0;}.cls-10{fill:#fff;}</style></defs><g id="Layer_2" data-name="Layer 2"><g id="Capa_1" data-name="Capa 1"><path class="cls-1" d="M1365.13,212.29c25.68-9,50.76-2.69,79.9,45s41.13,98.67,37.93,139.14c-5.81,73.37-28.87,119.72-76.77,114.85-36.45-3.7-78.34-78.08-85.91-147.45C1310.53,274.56,1333.69,233.49,1365.13,212.29Z"/><path class="cls-2" d="M552.13,34.25C584.75,53.63,620,69.71,649.5,93c92.67,73.12,145.68,169.42,162.78,286.85,3.8,26.06,18.8,51.55,32.78,74.82,18.38,30.58,39.92,59.42,61.78,87.71,36.07,46.7,63.71,97.41,79.41,154.42C961.92,723.91,938.61,752,913,777.88c-36.48,36.85-74.63,72-112.07,107.92L750.18,931c-1.9-2.17-3.44-4.88-5.75-6.44-24.87-16.85-51.56-31.51-74.41-50.74C640.48,849,613.46,821,586.3,793.43c-41.54-42.16-91.54-68-149-79.91C380.48,701.8,323.81,690,270.64,665.72c-37.74-17.23-73.1-38.22-102.11-68.13-27.16-28-46.57-61.41-62.64-96.84-38.68-85.26-38.74-171.09-4.46-257.61,22.15-55.92,63.9-94.76,109.88-131.17,74.89-59.3,160.25-85.13,254.32-84.4,26.86.21,53.68,5.51,80.54,8.3C548.08,36.07,550.14,34.82,552.13,34.25Zm118.25,135.9c-7.94-6.53-15.49-13.75-24-19.55-26.15-17.81-56.23-14.71-73.7,7.91-13.7,17.73-14.92,38.91-10.86,59.62,11.3,57.72,44.08,102.1,90.05,137.08C669,368.26,689,374.39,710.62,366.56c23.71-8.61,37.17-34.77,30.9-62.89C730.17,252.84,705.13,209,670.38,170.15Zm84.08,356c11.61,7.83,22.4,17.77,35.13,22.67,7.52,2.89,20.43.73,26.78-4.34,9.44-7.53,19.54-18.23,13.16-33.25-4.91-11.56-9.92-23.14-16-34.11-10.84-19.63-19.41-40.85-38.95-54.52-13.6-9.52-28.83-11.64-41.54-4.08s-19,22.95-16,39.36C721.86,484.69,737.11,505.49,754.46,526.13Z"/><path class="cls-3" d="M800.94,885.8c37.44-35.89,75.59-71.07,112.07-107.92,25.6-25.85,48.91-54,73.24-81.07,25.79-34.09,51.94-67.91,77.29-102.32,52.9-71.77,86.28-154.15,126.48-232.87,20.12-39.39,41.9-78.32,66.94-114.7,22.21-32.3,53.32-56.44,92.42-66.86,57.34-15.26,114.6,11.65,144,67,24.26,45.65,28.06,94.94,24.57,145.28-5.76,82.94-41.63,155-83,224.78-13.13,22.17-27.71,43.54-42.75,64.46-7.39,10.27,4.76,12.48,5.53,19-5.21-.92-6.74-14.73-14.52-5.27-31.44,38.24-61.54,77.61-93.66,115.27-31.77,37.26-64.81,73.49-98.33,109.2-34.47,36.73-70,72.43-105.42,108.3q-47.35,48-95.37,95.36c-7.57,7.51-15.77,14.36-23.69,21.52-.48.33-1,.66-1.43,1-5.89.51-11.87.51-17.64,1.63-17.24,3.35-34.24,8.66-51.62,10.43-36,3.65-68.3-6.58-93.35-33.25-22.22-23.66-31.58-53.24-31.93-85.42C770.24,986.19,783.3,935.52,800.94,885.8Zm628.49-637.53c-2.23-2.22-4.32-4.61-6.7-6.65-17.5-15-47.79-25.73-71,1.7-11.57,13.68-12.55,29.52-10.19,46.26,3.39,23.9,6.15,47.9,9.9,71.75,4.91,31.22,9.54,62.54,16.2,93.41a72.13,72.13,0,0,0,30.71,45c26.66,17.82,56.21,1.79,65.46-33.25,9.69-36.72,10.39-74.15,8.74-111.37C1470.8,315.13,1457.83,278.24,1429.43,248.27ZM1327.2,556.48c-19.13,22.84-33.06,50.6-26.54,84.74,5.07,26.54,31.18,40.26,53.53,26,29.38-18.8,43.22-48.79,46.32-82.89,1.71-18.8-5.9-35.51-24.09-43.31S1342.87,541.39,1327.2,556.48Z"/><path class="cls-4" d="M800.94,885.8c-17.64,49.72-30.7,100.39-30.11,153.63.35,32.18,9.71,61.76,31.93,85.42,25,26.67,57.37,36.9,93.35,33.25,17.38-1.77,34.38-7.08,51.62-10.43,5.77-1.12,11.75-1.12,17.64-1.63-43.48,40.78-86.82,81.72-130.53,122.26-14.45,13.41-29.69,26-44.81,38.65-24,20.1-48.13,40-72.21,60-23,15.87-45.62,32.41-69.17,47.47C582,1457,513.3,1495.46,434.33,1510.09c-59.51,11-119,11.39-175.27-14.63-88.24-40.78-106.92-139.55-41.59-211.71,32.2-35.56,72.14-59.52,114.28-80.62,65.89-33,132.52-64.57,197.55-99.17,59.21-31.5,111.37-73.3,159.66-119.81L750.18,931Z"/><path class="cls-5" d="M1394.12,886.44c7.86,1.6,15.68,3.48,23.6,4.74,83.21,13.2,155.87,47.78,217.63,105.49,39.69,37.1,77.76,75.41,105.7,122.53,36.78,62,55.5,129.18,57.29,201.31,1.54,61.89-2.77,122.75-24.77,181.44-19.61,52.31-48,99.07-86.53,139.47s-77.84,79.81-127.2,107.53c-54.48,30.6-112.66,49-175,52.59-67.7,3.9-134.87,1.25-199.51-22.93-51.34-19.19-97.39-46.66-137.75-84-42.44-39.29-83.2-80-111.31-131.15-11.31-20.59-19.9-42.67-29.73-64.08,4,.43,8.11,1.7,12,1.15,21.68-3.07,43.22-7.55,65-9.52,11.52-1,23.41,2,35.14,3.21,1.11,2.26,2.25,4.5,3.31,6.78,16.94,36.16,36.25,71.94,66.1,98,28.09,24.55,60.73,44.93,93.87,62.4,49.88,26.31,104.38,40,161,39.29,60.14-.79,117.46-16.53,169.84-46,29.13-16.39,59.6-33.88,82-57.86,25.52-27.35,45.32-61.11,62.86-94.57,26-49.65,39.74-103.94,38.91-160.14a354.79,354.79,0,0,0-48.59-174.83c-16.64-28.59-34.43-58.61-58.59-80.33-69.48-62.46-153-94.35-246.67-98.56Z"/><path class="cls-6" d="M750.18,931,689,984.15c-65.85-19.65-121.21-56.52-174.1-99.77-29.27-23.94-64.94-40.57-99.06-57.87-17.83-9-38.16-14.69-58-18C110.22,767-52.44,514.69,15.52,276.69,60.25,120.07,202.65,7.66,365.06.47c65-2.88,127.46,7.32,187.07,33.78-2,.57-4,1.82-6,1.62-26.86-2.79-53.68-8.09-80.54-8.3-94.07-.73-179.43,25.1-254.32,84.4-46,36.41-87.73,75.25-109.88,131.17-34.28,86.52-34.22,172.35,4.46,257.61,16.07,35.43,35.48,68.85,62.64,96.84,29,29.91,64.37,50.9,102.11,68.13,53.17,24.28,109.84,36.08,166.61,47.8,57.51,11.87,107.51,37.75,149,79.91C613.46,821,640.48,849,670,873.85c22.85,19.23,49.54,33.89,74.41,50.74C746.74,926.15,748.28,928.86,750.18,931Z"/><path class="cls-7" d="M1394.12,886.44l-51.47,102c-29.61,40.23-57.69,81.72-89.32,120.28-25,30.52-54.41,57.44-81.86,86-1.21-.31-2.51-1.1-3.62-.88-25.89,5-51.56,11.77-77.66,14.7-37.9,4.25-71.48-4.83-95.73-37.89-7.29-9.94-18.33-17.12-27.66-25.57,7.92-7.16,16.12-14,23.69-21.52q47.87-47.49,95.37-95.36c35.38-35.87,71-71.57,105.42-108.3,33.52-35.71,66.56-71.94,98.33-109.2,32.12-37.66,62.22-77,93.66-115.27,7.78-9.46,9.31,4.35,14.52,5.27,19.64,24.74,23,53.86,21.4,83.84C1417.26,819.94,1408,853.8,1394.12,886.44Zm-55.52-99.53c-23,34.51-33,69.12-28.84,107.12,1,9.57,6.33,18.37,17.43,19.73,11.91,1.46,22.35-1.38,28.83-13.07,17.07-30.79,19.52-64.52,18.38-98.46-.23-6.84-7.82-16.53-14.34-19.17C1353.88,780.56,1344.66,785.59,1338.6,786.91Z"/><path class="cls-8" d="M966.8,1145c9.33,8.45,20.37,15.63,27.66,25.57,24.25,33.06,57.83,42.14,95.73,37.89,26.1-2.93,51.77-9.73,77.66-14.7,1.11-.22,2.41.57,3.62.88-56.29,54.4-118.23,101.25-186.37,139.83l-103.86,45.92c-35.6,11.36-71.76,18.42-109.26,12.45-20.5-3.26-39.35-10.54-54.16-26,24.08-20,48.24-39.85,72.21-60,15.12-12.68,30.36-25.24,44.81-38.65,43.71-40.54,87-81.48,130.53-122.26C965.84,1145.68,966.32,1145.35,966.8,1145Z"/><path class="cls-9" d="M881.24,1380.41l103.86-45.92c-.29,4.66-1,9.33-.82,14,1.89,50.82,14.53,99.14,34.37,145.74-11.73-1.2-23.62-4.26-35.14-3.21-21.76,2-43.3,6.45-65,9.52-3.86.55-8-.72-12-1.15q-11.64-55-23.29-110.07C882.64,1386.32,881.92,1383.37,881.24,1380.41Z"/><path class="cls-10" d="M670.38,170.15c34.75,38.85,59.79,82.69,71.14,133.52,6.27,28.12-7.19,54.28-30.9,62.89-21.58,7.83-41.61,1.7-58.76-11.35-46-35-78.75-79.36-90.05-137.08-4.06-20.71-2.84-41.89,10.86-59.62,17.47-22.62,47.55-25.72,73.7-7.91C654.89,156.4,662.44,163.62,670.38,170.15Z"/><path class="cls-10" d="M754.46,526.13c-17.35-20.64-32.6-41.44-37.45-68.27-3-16.41,3.34-31.81,16-39.36s27.94-5.44,41.54,4.08c19.54,13.67,28.11,34.89,38.95,54.52,6.06,11,11.07,22.55,16,34.11,6.38,15-3.72,25.72-13.16,33.25-6.35,5.07-19.26,7.23-26.78,4.34C776.86,543.9,766.07,534,754.46,526.13Z"/><path class="cls-1" d="M1327.2,556.48c15.67-15.09,31.07-23.29,49.22-15.5s25.8,24.51,24.09,43.31c-3.1,34.1-16.94,64.09-46.32,82.89-22.35,14.3-48.46.58-53.53-26C1294.14,607.08,1308.07,579.32,1327.2,556.48Z"/><path class="cls-1" d="M1338.6,786.91c6.06-1.32,15.28-6.35,21.46-3.85,6.52,2.64,14.11,12.33,14.34,19.17,1.14,33.94-1.31,67.67-18.38,98.46-6.48,11.69-16.92,14.53-28.83,13.07-11.1-1.36-16.39-10.16-17.43-19.73C1305.64,856,1315.57,821.42,1338.6,786.91Z"/></g></g></svg>