<svg xmlns="http://www.w3.org/2000/svg" viewBox="0 0 1952.66 1413.41"><defs><style>.cls-1{fill:#a2d2c6;}.cls-2{fill:#afdacf;}.cls-3{fill:#85bab1;}.cls-4{fill:#91c6b8;}.cls-5{fill:#92c7b9;}.cls-6{fill:#a5d4c6;}.cls-7{fill:#f6a55e;}.cls-8{fill:#fbc36f;}.cls-9{fill:#a4d3c4;}.cls-10{fill:#f6a861;}.cls-11{fill:#c16b55;}.cls-12{fill:#fab965;}.cls-13{fill:#9ad1c7;}.cls-14{fill:#8bc8be;}.cls-15{fill:#aed9cf;}.cls-16{fill:#98c9bb;}.cls-17{fill:#96c7bb;}.cls-18{fill:#74aeac;}.cls-19{fill:#487d7d;}.cls-20{fill:#84bdb8;}.cls-21{fill:#abd8cf;}.cls-22{fill:#6c3739;}.cls-23{fill:#55676f;}.cls-24{fill:#d77775;}.cls-25{fill:#5e4746;}.cls-26{fill:#844a4c;}.cls-27{fill:#4f6d71;}.cls-28{fill:#783435;}.cls-29{fill:#d47270;}.cls-30{fill:#773c39;}.cls-31{fill:#8cbeb6;}.cls-32{fill:#634d4a;}.cls-33{fill:#5d4948;}.cls-34{fill:#733531;}.cls-35{fill:#a96561;}.cls-36{fill:#8a4840;}.cls-37{fill:#a85b4b;}</style></defs><g id="Layer_2" data-name="Layer 2"><g id="Capa_1" data-name="Capa 1"><path class="cls-1" d="M366.18,280.63c-1.19-20-.64-40.19,4-59.81,6.84-30.48,13.41-61.91,29.84-89,23.63-39.19,59.35-71.22,101.24-89.74,32.76-14.74,69.25-15.92,104.48-19C581.85,5.11,551,.59,521.8,0c-75.32.23-146.72,48.13-180,115C317,161.78,310.88,219.54,332.6,268.64l16.61-9.72C354.91,266.13,360.61,273.33,366.18,280.63Z"/><path class="cls-2" d="M400,131.85c-16.43,27.06-23,58.49-29.84,89,1.55,20.35,3.1,41.25,10.81,60.32,6.3,15.51,22.27,23.17,35.31,32.07-2.46-17.29-6.29-34.67-4.65-52.24,7.76-53.56,27.06-107.76,67.71-145.36,36.77-42,93.21-60.45,147.77-61.36-27.78,8-56.84,12.36-83,25.09-51.15,24.45-92.53,70.08-109,124.65-12.82,36-12.32,75.73-2.55,112.41,6.2,24.19,28,39.24,46.21,54.21,5.48-20.85-3.33-41.93.1-63,5.42-34.12,11.22-69.25,28.51-99.78,15.92-30,40.65-54.15,67.3-74.73C607.85,108,650.19,95.86,691.71,98.69c-30.07,9.3-62.05,13.82-89.47,30.11-72,38.59-119.08,124.92-103.43,206.4,45.67,24.78,79.93,65.34,123.55,93.17,4.56-25.37,7-51.47,16.61-75.56,15.42-36.27,39.92-70.21,74.55-90.24,56-36.41,127-54.93,192.76-37.6-31.94,2.28-64.42,0-95.77,7.49C756,245,706.63,279,676.2,326c-22.91,38.1-31.26,85-22.36,128.62,31.62,23.08,61.87,47.9,92.16,72.67,5.7,5.43,20.12,13.24,20.26-.59,7.8-52.33,29.33-105.89,73.77-137.6,62.87-59,156.54-78.84,239.39-59.27-24.68,1.28-49.41.46-74,1.83-72.55,4.2-143.27,42.7-183.14,103.89-23.77,37.91-35.4,83.67-30.43,128.34C841.72,603.47,891.09,644,943.46,680.3c8.53-31.11,11.13-64,25.55-93.34,26.1-54.39,69.31-103.66,127.2-124.51,52.52-24.09,113.65-34.95,170.14-19.35-24.59,1.42-49.28.6-73.82,2.79-125.29,12.22-232.23,131.9-222.28,258.87,35,20.67,64,50.69,102.06,66.24,7.48-26.59,12.86-53.92,24.22-79.24,28.93-61.32,75-116.39,136.88-146.23,62.68-34.08,138.24-36.13,206.17-18.25-13.09-10.31-27.33-18.89-41.7-27.1-81-49.87-163.2-97.77-243.59-148.69-75.82-43.66-149-91.75-224.51-135.87C826.76,152.29,723.6,89.24,619.26,28.24c-4.34-2.19-8.72-4.52-13.55-5.11-35.23,3.06-71.72,4.24-104.48,19C459.34,60.63,423.62,92.66,400,131.85Z"/><path class="cls-3" d="M567.38,482.2c47.41,42.57,99.51,79.48,146.59,122.46,113.11,93.71,225.16,188.75,339.9,280.45,43.12,32.71,82.54,69.9,125.38,103,37,28.2,71,60.05,108.17,88,31.12,23.4,59.77,49.91,90.8,73.5,32,25.18,63.19,53.56,102.88,66,26.92,8,48.64,27,75.14,35.82,3.74-8.08,7.44-16.2,11.09-24.28a247.46,247.46,0,0,1-41.84-29.15c6.85,10.49,12.91,21.49,19,32.49-21.85-5.3-41.88-15.61-62-25.23-46.81-20.72-93.26-50.56-117.35-97.32-26.46-48.73-25.36-106.63-17.34-160-4.83-3.1-9.67-6.16-14.55-9.12s-9.85-5.89-14.78-8.72c-17.7-9.85-35.18-20.07-52.38-30.8.32-4.19.64-8.34,1-12.45-11.5-.09-23.32-.73-33.81-5.93-15.65-10.59-30.34-22.54-46.31-32.58-12.36-7-25.82-11.77-39.24-16.29,1.37,25,3.47,50,4.25,75-28.2-19.48-52.43-44.12-80.94-63.19-23.73-16.61-47-33.94-69-52.69A85.21,85.21,0,0,1,977.27,757c-12.77-2.42-25.73-5.8-36.22-13.83-33.58-30.79-69.76-58.49-105.76-86.32-14.74-11.18-27.83-24.82-36.09-41.52q-2.6-4.71-5.2-9.35c-1.46,3-4.34,8.94-5.8,12-5.33-3.84-10.72-7.72-16.06-11.59-20.16-14.88-39.37-31-59.4-46.08-17.79-13-34.81-28.11-45.17-48-11.86-2-23.27-6.34-32.21-14.55-19.21-16.38-38.23-33-58.21-48.45-23.23-18.89-48.55-36.18-66.39-60.68-11.09-5.25-22.22-10.63-32-18-18.25-15-40-30-46.21-54.21C422.75,279.72,422.25,240,435.07,204c16.47-54.57,57.85-100.2,109-124.65,26.19-12.73,55.25-17.06,83-25.09-54.56.91-111,19.34-147.77,61.36-40.65,37.6-59.95,91.8-67.71,145.36-1.64,17.57,2.19,34.95,4.65,52.24-13-8.9-29-16.56-35.31-32.07-7.71-19.07-9.26-40-10.81-60.32-4.61,19.62-5.16,39.79-4,59.81-5.57-7.3-11.27-14.5-17-21.71l-16.61,9.72c9.17,16.37,19.89,32.12,34.81,43.79,19.39,15.65,37,33.27,56.07,49.33,20.4,15.78,40.7,31.89,59.09,50.09C508.62,437.9,540.05,457.56,567.38,482.2Z"/><path class="cls-4" d="M602.24,128.8c27.42-16.29,59.4-20.81,89.47-30.11-41.52-2.83-83.86,9.3-117.07,34.44-26.65,20.58-51.38,44.76-67.3,74.73-17.29,30.53-23.09,65.66-28.51,99.78-3.43,21,5.38,42.12-.1,63,9.81,7.39,20.94,12.77,32,18-5-17.57-8.62-35.5-11.95-53.43C483.16,253.72,530.24,167.39,602.24,128.8Z"/><path class="cls-4" d="M822.24,435.58c39.87-61.19,110.59-99.69,183.14-103.89,24.63-1.37,49.36-.55,74-1.83-82.85-19.57-176.52.28-239.39,59.27-12.68,18-25.36,36.09-36.54,55.07-17.8,30.25-21.67,65.74-29.25,99.41-4.7,20.58-3.88,41.84-2.1,62.74,5.34,3.87,10.73,7.75,16.06,11.59,1.46-3,4.34-9,5.8-12q2.6,4.65,5.2,9.35c-3.15-17.06-5.43-34.21-7.39-51.41C786.84,519.25,798.47,473.49,822.24,435.58Z"/><path class="cls-5" d="M676.2,326C706.63,279,756,245,810.51,232.46c31.35-7.53,63.83-5.21,95.77-7.49-65.79-17.33-136.74,1.19-192.76,37.6-20.95,23.54-44.62,45.76-57.9,74.91-14.37,30.3-18.61,64.11-22,97.14-2.46,20.76,4.15,40.83,8.53,60.86-1.69.55-5.11,1.69-6.8,2.28,8.94,8.21,20.35,12.59,32.21,14.55q-7.59-28.66-13.73-57.66C644.94,411,653.29,364.13,676.2,326Z"/><path class="cls-6" d="M633.63,434.62c3.38-33,7.62-66.84,22-97.14,13.28-29.15,37-51.37,57.9-74.91-34.63,20-59.13,54-74.55,90.24-9.63,24.09-12.05,50.19-16.61,75.56C578.74,400.54,544.48,360,498.81,335.2c3.33,17.93,7,35.86,11.95,53.43,17.84,24.5,43.16,41.79,66.39,60.68,20,15.42,39,32.07,58.21,48.45,1.69-.59,5.11-1.73,6.8-2.28C637.78,475.45,631.17,455.38,633.63,434.62Z"/><path class="cls-7" d="M622.86,581.76c108.86,93.62,220.5,183.91,329.91,276.94,103.38,88.32,208.64,174.46,312.07,262.74,67.34,56,133.41,113.61,202,168.08A440.73,440.73,0,0,1,1575.09,1265c4.83-1.28,9.67-2.74,14.5-4.2-11.13-3.15-22.35-6-33.35-9.44-26.5-8.85-48.22-27.83-75.14-35.82-39.69-12.41-70.9-40.79-102.88-66-31-23.59-59.68-50.1-90.8-73.5-37.18-27.92-71.21-59.77-108.17-88-42.84-33.07-82.26-70.26-125.38-103C939.13,793.41,827.08,698.37,714,604.66c-47.08-43-99.18-79.89-146.59-122.46-27.33-24.64-58.76-44.3-84.81-70.35-18.39-18.2-38.69-34.31-59.09-50.09-12.09,5.38-24.18,10.76-36.08,16.51,10.67,11,21.67,21.63,33.25,31.62C488.13,467.1,555.11,524.86,622.86,581.76Z"/><path class="cls-8" d="M137.42,501.41c80,79.71,159.41,160.05,239.94,239.16C435.62,790.12,485,849.11,543.11,898.8c63.33,59.81,121.73,124.83,187.29,182.27,44.39,42.25,85.54,87.87,131.49,128.47,49.18,46.54,102.2,91.66,165.8,116.94,45.8,16.74,94.53,27.19,143.48,25.78,1.74-7.21,3.47-14.37,5.25-21.49q15.6,18,30.57,36.59-11.91,6.71-23.68,13.55,9.78.88,19.62,1.51c53.88-6.3,105.44-24.82,155-46.18,36.32-15.55,71.49-33.71,108.86-46.72-68.57-54.47-134.64-112.09-202-168.08C1161.41,1033.16,1056.15,947,952.77,858.7c-109.41-93-221-183.32-329.91-276.94-67.75-56.9-134.73-114.66-202.21-171.87-11.58-10-22.58-20.67-33.25-31.62-40.52,18.84-81.22,38.23-124.83,48.82-38.88,10.08-79.57,9.17-119.4,7.39-33.49-1.78-64-16.79-95.77-25.91C75.37,441.46,107.26,470.61,137.42,501.41ZM230,458.48c20.9-1.37,35,16.47,49.18,29,64.56,58.67,132,114.06,194,175.52,26.19,20.76,48.41,45.8,73.27,68.07,23.54,19,43.66,41.7,67.07,60.81,22.4,18.57,40.88,41.2,62.82,60.27C726.2,893.32,767,944.24,817,985.35c54.89,53.06,108,107.94,162.47,161.42,29.38,26.87,60.09,52.6,85.46,83.44,24.18,27.7,52.14,53.06,68.61,86.6a39.32,39.32,0,0,1,4.06,17.7c-21.3,4-43-1.51-62.77-9.22-15.33-5.06-20.63-21.9-32.21-31.57-71.36-57.53-141.76-116.52-207.73-180.17-29.61-23.54-53.7-53-82.86-76.92-26.46-22.13-48.31-49.09-75.09-70.86-22.63-18.34-41.2-41-63.88-59.31-21.67-17.75-39.92-39.28-61.77-56.89-24.18-19.8-43.85-44.39-68-64.15-29.34-23.86-53.33-53.33-82.53-77.29-40-36-76.52-75.6-115.07-113.1-44-44.07-89.1-87.19-128.66-135.41C181.26,464,205.67,460.53,230,458.48Z"/><path class="cls-9" d="M774.24,543.61c7.58-33.67,11.45-69.16,29.25-99.41,11.18-19,23.86-37.05,36.54-55.07-44.44,31.71-66,85.27-73.77,137.6-.14,13.83-14.56,6-20.26.59-30.29-24.77-60.54-49.59-92.16-72.67q6.17,29,13.73,57.66c10.36,19.85,27.38,34.91,45.17,48,20,15.05,39.24,31.2,59.4,46.08C770.36,585.45,769.54,564.19,774.24,543.61Z"/><path class="cls-9" d="M952.27,701.43c5.38-65.79,26.83-132.63,72.5-181.82,20.71-22.63,47-39,71.44-57.16C1038.32,483.3,995.11,532.57,969,587c-14.42,29.29-17,62.23-25.55,93.34C891.09,644,841.72,603.47,791.81,563.92c2,17.2,4.24,34.35,7.39,51.41,8.26,16.7,21.35,30.34,36.09,41.52,36,27.83,72.18,55.53,105.76,86.32,4.79.55,9.58,1.1,14.41,1.69C953.68,730.44,951.68,716,952.27,701.43Z"/><path class="cls-10" d="M124.37,551c56.21,53.33,110.55,108.45,165.75,162.79,110.19,110.36,223.15,217.85,333.56,328q87.26,83.78,173.1,169.09c43.89,44.34,89.88,87.69,144.68,118.39,48,28.06,101.65,45,156.12,55.16,35,3,70.45,3.61,105.35-2q-9.86-.62-19.62-1.51,11.78-6.84,23.68-13.55-15-18.61-30.57-36.59c-1.78,7.12-3.51,14.28-5.25,21.49-49,1.41-97.68-9-143.48-25.78-63.6-25.28-116.62-70.4-165.8-116.94-45.95-40.6-87.1-86.22-131.49-128.47-65.56-57.44-124-122.46-187.29-182.27C485,849.11,435.62,790.12,377.36,740.57c-80.53-79.11-159.92-159.45-239.94-239.16-30.16-30.8-62-60-90-92.84-7.39-9.13-20.48-8.13-31-7.31-11.81.1-19.8,14.19-15,24.6C39.05,470.71,84,508.71,124.37,551Z"/><path class="cls-11" d="M796.78,1210.87q-85.89-85.2-173.1-169.09c-110.41-110.18-223.37-217.67-333.56-328C234.92,659.41,180.58,604.29,124.37,551,84,508.71,39.05,470.71,1.41,425.86c1,15.92,7.44,30.88,19.48,41.56Q413.52,857.24,807.78,1245.5c35.72,34.85,70.8,71.35,113.78,97.5,6.62-4.61,13.23-9.22,19.9-13.74C886.66,1298.56,840.67,1255.21,796.78,1210.87Z"/><path class="cls-4" d="M1192.53,445.89c24.54-2.19,49.23-1.37,73.82-2.79-56.49-15.6-117.62-4.74-170.14,19.35-24.41,18.2-50.73,34.53-71.44,57.16-45.67,49.19-67.12,116-72.5,181.82-.59,14.55,1.41,29,3.19,43.43-4.83-.59-9.62-1.14-14.41-1.69,10.49,8,23.45,11.41,36.22,13.83-3-17.29-5.29-34.77-7-52.24C960.3,577.79,1067.24,458.11,1192.53,445.89Z"/><path class="cls-12" d="M285.65,595c38.55,37.5,75.05,77.15,115.07,113.1,29.2,24,53.19,53.43,82.53,77.29,24.18,19.76,43.85,44.35,68,64.15,21.85,17.61,40.1,39.14,61.77,56.89,22.68,18.3,41.25,41,63.88,59.31,26.78,21.77,48.63,48.73,75.09,70.86,29.16,23.95,53.25,53.38,82.86,76.92,66,63.65,136.37,122.64,207.73,180.17,11.58,9.67,16.88,26.51,32.21,31.57,19.8,7.71,41.47,13.24,62.77,9.22a39.32,39.32,0,0,0-4.06-17.7c-16.47-33.54-44.43-58.9-68.61-86.6-25.37-30.84-56.08-56.57-85.46-83.44C925,1093.29,871.88,1038.41,817,985.35c-50-41.11-90.79-92-140.66-133.23-21.94-19.07-40.42-41.7-62.82-60.27C590.1,772.74,570,750,546.44,731c-24.86-22.27-47.08-47.31-73.27-68.07-62-61.46-129.44-116.85-194-175.52C265,475,250.89,457.11,230,458.48c-24.32,2-48.73,5.52-73,1.14C196.55,507.84,241.62,551,285.65,595Z"/><path class="cls-13" d="M1233.41,545.53c-61.87,29.84-108,84.91-136.88,146.23-11.36,25.32-16.74,52.65-24.22,79.24-38-15.55-67.07-45.57-102.06-66.24,1.73,17.47,4,35,7,52.24A85.21,85.21,0,0,0,1002,791.13c22.08,18.75,45.3,36.08,69,52.69,2.55-22.08,3.47-44.3,4.15-66.47,25.14,13.36,47.4,31.43,72.36,45.16,10.08-35.35,15.33-72.63,33.94-105,41-84,125.84-149.33,220.87-154.16,28.47-3.15,58.36,4.52,85.59-7.26-15.33-10.85-30.75-22.08-48.36-28.83C1371.65,509.4,1296.09,511.45,1233.41,545.53Z"/><path class="cls-14" d="M1402.35,563.37c-95,4.83-179.85,70.12-220.87,154.16-18.61,32.35-23.86,69.63-33.94,105-25-13.73-47.22-31.8-72.36-45.16-.68,22.17-1.6,44.39-4.15,66.47,28.51,19.07,52.74,43.71,80.94,63.19-.78-25-2.88-50-4.25-75,13.42,4.52,26.88,9.31,39.24,16.29,4.84-30.06,6.84-60.95,17.43-89.79,31.75-85.22,107.31-155.39,197.92-171.77,45.89-9.58,92.8-3.1,138.69,2.64a375.72,375.72,0,0,0-53.06-33.26C1460.71,567.89,1430.82,560.22,1402.35,563.37Z"/><path class="cls-15" d="M1402.31,586.73c-90.61,16.38-166.17,86.55-197.92,171.77-10.59,28.84-12.59,59.73-17.43,89.79,16,10,30.66,22,46.31,32.58,2.78-1.23,8.35-3.79,11.18-5.07,6.11-34.12,12.41-68.66,27.23-100.28,14.19-33.44,39.06-60.68,64.38-86,63.42-61.09,160.78-88.6,245-58.08-27.06,1.14-54.11-1.55-81.12-.5-59.22,3.65-113.43,35.63-154.08,77.43-46.35,47.86-72.9,112.46-78.74,178.48-.37,4.11-.69,8.26-1,12.45,17.2,10.73,34.68,21,52.38,30.8,16.42-90.2,71.22-175.7,153.94-218.22,59.44-30.39,130.12-41.7,195.5-26.42-44.12,5.43-89.43,3.15-132.36,16.15-55.07,15-101.92,51.51-138.56,94.36-34.36,40.55-52.65,91.56-63.74,142.85,4.88,3,9.72,6,14.55,9.12,17.75-95.31,83.27-180.9,171.78-221,69.94-32.67,151.75-33.9,225-11.77-18.66-17.57-42.11-28.38-63.42-42.16-39.14-24.77-79.34-47.77-118.12-73.18-6.93-4.2-13.92-8.94-22-10.36C1495.11,583.63,1448.2,577.15,1402.31,586.73Z"/><path class="cls-16" d="M1499.9,630.89c27-1,54.06,1.64,81.12.5-84.18-30.52-181.54-3-245,58.08-25.32,25.37-50.19,52.61-64.38,86-14.82,31.62-21.12,66.16-27.23,100.28-2.83,1.28-8.4,3.84-11.18,5.07,10.49,5.2,22.31,5.84,33.81,5.93,5.84-66,32.39-130.62,78.74-178.48C1386.47,666.52,1440.68,634.54,1499.9,630.89Z"/><path class="cls-17" d="M1535.53,701.56c42.93-13,88.24-10.72,132.36-16.15-65.38-15.28-136.06-4-195.5,26.42-82.72,42.52-137.52,128-153.94,218.22,4.93,2.83,9.9,5.7,14.78,8.72,11.09-51.29,29.38-102.3,63.74-142.85C1433.61,753.07,1480.46,716.57,1535.53,701.56Z"/><path class="cls-18" d="M1519.56,726.84c-88.51,40.15-154,125.74-171.78,221-8,53.33-9.12,111.23,17.34,160,24.09,46.76,70.54,76.6,117.35,97.32,20.12,9.62,40.15,19.93,62,25.23-6.07-11-12.13-22-19-32.49-10.22-14.37-20.3-29-28.06-44.89-17.79-35.64-19.75-76.79-14.73-115.71,5.15-45.12,24.59-88.74,55.25-122.31,51.42-66.11,136.14-104.58,219.77-99.47,41,.28,82.4,14.19,112.83,42.21,25.23,21.85,39.1,53.1,48.5,84.45,10.49-1.92,21-3.93,31.52-5.84-7.8-51.47-39.23-98.37-84.49-124.24-22.13-10.86-32.58-34.22-50.14-50.18a236.08,236.08,0,0,0-71.36-46.86C1671.31,692.94,1589.5,694.17,1519.56,726.84Zm204.08,19.48c41.24,5.48,82.76,21.63,113.79,49.91-27.88-4.28-55.12-13.13-83.5-13.23-71.81-1-143.53,24.82-198.64,70.86-49.51,40.74-84.18,97.77-102,159-2.14,26.83-7.07,53.61-5.16,80.62,1.65,26.6,9.58,52.2,16.61,77.79-7.21-4.42-14.6-8.53-21.31-13.64l2.47,3.19c-18.94-10.4-30.21-29.42-40.93-47.35-20.57-34.91-30.84-75.51-30.38-115.94-1.24-77.33,34.72-153.75,93.48-203.71,48.64-41.47,112.37-65.1,176.34-65,9.22-.18,18.3,2,27.15,4.61C1688.69,737.29,1710.41,732.82,1723.64,746.32Z"/><path class="cls-19" d="M1468.05,793.86c-58.76,50-94.72,126.38-93.48,203.71-.46,40.43,9.81,81,30.38,115.94,10.72,17.93,22,37,40.93,47.35l-2.47-3.19c-15.87-20.17-30.38-41.84-39.51-66-16.42-43.62-16.88-91.94-7.89-137.29,13.37-65.1,54.43-122.31,106.9-162.1,48.5-35.86,107.58-60.09,168.63-58.81-8.85-2.6-17.93-4.79-27.15-4.61C1580.42,728.76,1516.69,752.39,1468.05,793.86Z"/><path class="cls-20" d="M1396,954.41c-9,45.35-8.53,93.67,7.89,137.29,9.13,24.13,23.64,45.8,39.51,66,6.71,5.11,14.1,9.22,21.31,13.64-7-25.59-15-51.19-16.61-77.79-1.91-27,3-53.79,5.16-80.62-10.18-7.11-21.13-13.45-29.43-22.81-2.55-13,2.24-26,5.48-38.32,10.67-33.86,24.09-67.57,45.94-95.86,38.87-48.73,92.8-86,153.39-101.79,30.93-8.21,63.23-7.94,95-7.8-13.23-13.5-35-9-52.1-12.82-61-1.28-120.13,23-168.63,58.81C1450.44,832.1,1409.38,889.31,1396,954.41Z"/><path class="cls-21" d="M1628.65,754.12c-60.59,15.74-114.52,53.06-153.39,101.79-21.85,28.29-35.27,62-45.94,95.86-3.24,12.36-8,25.37-5.48,38.32,8.3,9.36,19.25,15.7,29.43,22.81,17.84-61.27,52.51-118.3,102-159,55.11-46,126.83-71.86,198.64-70.86,28.38.1,55.62,9,83.5,13.23-31-28.28-72.55-44.43-113.79-49.91C1691.88,746.18,1659.58,745.91,1628.65,754.12Z"/><path class="cls-22" d="M1609.62,893.92c26.1-23.18,57.76-40,91.25-49.64,33.72-9.72,69.44-7.71,103.8-3-15.38-9.12-30.21-19.3-47-25.78-83.63-5.11-168.35,33.36-219.77,99.47,22.81-13.6,45-28.34,68.57-40.57C1607.52,880.91,1608.57,887.44,1609.62,893.92Z"/><path class="cls-23" d="M1870.55,857.74c-30.43-28-71.81-41.93-112.83-42.21,16.74,6.48,31.57,16.66,47,25.78C1821.05,849,1838,856,1852.8,866.59c24.32,17.61,40.65,44.16,51.28,71.86,5,1.23,10,2.46,15,3.74C1909.65,910.84,1895.78,879.59,1870.55,857.74Z"/><path class="cls-24" d="M1700.87,844.28c-33.49,9.67-65.15,26.46-91.25,49.64-21.21,20.57-40.1,43.89-54.2,69.94-13.59,25-18.75,53.61-21.4,81.71,1.78,41.47,17.39,85.59,53.89,108.77,41.83,28.1,95.72,24,142.25,11.45A371.86,371.86,0,0,0,1770,1145.9c55.16-31.48,94.26-91.75,94.35-156.08-4.66-22.27-11.59-45-26.65-62.55-18.25-22-46.4-34.27-74.64-36-52.24-3.88-104.11,20.8-138.24,59.72-25.64,28.29-37.27,68.12-31.62,105.85,3.47,23.82,18.66,45.26,39.19,57.53,17.39,10.63,38.42,12,58.36,11.86,35.4-1.23,63.73-23.58,94-38.87-14.46,34.4-54.75,44.85-87.64,52.84-22.54,3.14-46.45,4.38-67.94-4.29-24.86-9.81-44.21-31.12-53.52-55.89-11.49-33.26-7.39-70.81,6.89-102.57,34.63-69.94,114.57-117.25,193-106.07,42.34,3.74,81.89,33.67,93.89,74.91,12.41,40.43,7,85.41-11.54,123.14-22.45,43.35-58.9,79.75-102.75,101.33-40.46,20.49-87.27,28.75-132.08,21.08-24.95-4-48.95-15.33-66.38-33.76-28.2-28.1-38-70.72-31.44-109.27-25.82,4.93-29.61,33.9-33.26,55.25,7.17,23.09,14,47.27,29.66,66.29,19.76,24.46,48.13,40.38,77.74,49.82,114.52,29.39,238.34-39.32,289.22-142.8,21.44-42.61,26.41-92.66,15.46-138.92-10.63-27.7-27-54.25-51.28-71.86C1838,856,1821.05,849,1804.67,841.31,1770.31,836.57,1734.59,834.56,1700.87,844.28ZM1777,1070c-4.65-1.69-9.26-3.33-13.82-5-14.78,15.33-35.5,23.31-55.71,28.51-23.59,5.43-52.47,2.56-68.3-17.79-19.66-23-17.24-57.21-4.42-82.9,24.5-49.32,83.58-77,137.33-68.66,29.56,4.65,49.77,31.29,58.21,58.39,8.26,35.68-6.75,71.91-28.83,99.51-3.7,3.83-7.07,9.81-13.28,9C1784,1084.26,1780.53,1077.05,1777,1070Z"/><path class="cls-25" d="M1775.56,871.38c-78.47-11.18-158.41,36.13-193,106.07-14.28,31.76-18.38,69.31-6.89,102.57,9.31,24.77,28.66,46.08,53.52,55.89,21.49,8.67,45.4,7.43,67.94,4.29-2.1-4.7-4.25-9.36-6.39-14-19.94.14-41-1.23-58.36-11.86-20.53-12.27-35.72-33.71-39.19-57.53-5.65-37.73,6-77.56,31.62-105.85,34.13-38.92,86-63.6,138.24-59.72,28.24,1.73,56.39,14,74.64,36,15.06,17.56,22,40.28,26.65,62.55,1.46-14.56,3.78-29,5.15-43.53C1857.45,905.05,1817.9,875.12,1775.56,871.38Z"/><path class="cls-26" d="M1492,1104.06c3.65-21.35,7.44-50.32,33.26-55.25,2.19-.78,6.57-2.42,8.76-3.24,2.65-28.1,7.81-56.66,21.4-81.71,14.1-26.05,33-49.37,54.2-69.94-1-6.48-2.1-13-3.1-19.49-23.59,12.23-45.76,27-68.57,40.57-30.66,33.57-50.1,77.19-55.25,122.31C1481.92,1059.9,1484.7,1082.62,1492,1104.06Z"/><path class="cls-27" d="M1772.05,924.17c-53.75-8.31-112.83,19.34-137.33,68.66-12.82,25.69-15.24,59.86,4.42,82.9,15.83,20.35,44.71,23.22,68.3,17.79,20.21-5.2,40.93-13.18,55.71-28.51,22.9-27,44.62-55,67.11-82.45C1821.82,955.46,1801.61,928.82,1772.05,924.17Z"/><path class="cls-28" d="M1888.62,1077.37c-50.88,103.48-174.7,172.19-289.22,142.8,2.28,5.62,4.61,11.23,7.17,16.75,1.78.41,5.38,1.14,7.16,1.51,62.32,6.11,127.06-7.21,180.22-40.84,58.49-36.41,104.38-94.49,121.72-161.55,8.12-30.66,5.84-62.65,3.38-93.85-5-1.28-10-2.51-15-3.74C1915,984.71,1910.06,1034.76,1888.62,1077.37Z"/><path class="cls-29" d="M1919.05,942.19c2.46,31.2,4.74,63.19-3.38,93.85-17.34,67.06-63.23,125.14-121.72,161.55-53.16,33.63-117.9,47-180.22,40.84-2.37,9.07-4.75,18.2-7,27.32,35.82,5.16,71.72-.09,107.59-2.1,81.39-22.31,154.66-76,197.5-149.14,32.3-53.06,46.58-116.43,38.78-178.16C1940,938.26,1929.54,940.27,1919.05,942.19Z"/><path class="cls-30" d="M1857.91,1069.43c18.52-37.73,23.95-82.71,11.54-123.14-1.37,14.51-3.69,29-5.15,43.53-.09,64.33-39.19,124.6-94.35,156.08a371.86,371.86,0,0,1-39.79,19.89c8.35,1.37,16.66,3.15,25,5C1799,1149.18,1835.46,1112.78,1857.91,1069.43Z"/><path class="cls-31" d="M1801.43,1082.07c22.08-27.6,37.09-63.83,28.83-99.51-22.49,27.42-44.21,55.44-67.11,82.45,4.56,1.64,9.17,3.28,13.82,5,3.56,7.07,7,14.28,11.18,21.08C1794.36,1091.88,1797.73,1085.9,1801.43,1082.07Z"/><path class="cls-32" d="M1599.4,1220.17c-29.61-9.44-58-25.36-77.74-49.82-15.65-19-22.49-43.2-29.66-66.29-7.3-21.44-10.08-44.16-9.3-66.75-5,38.92-3.06,80.07,14.73,115.71,7.76,15.92,17.84,30.52,28.06,44.89a247.46,247.46,0,0,0,41.84,29.15c12.82,4.25,26.05,7,39.24,9.86C1604,1231.4,1601.68,1225.79,1599.4,1220.17Z"/><path class="cls-33" d="M1556.7,1158.08c17.43,18.43,41.43,29.75,66.38,33.76,44.81,7.67,91.62-.59,132.08-21.08-8.34-1.82-16.65-3.6-25-5-46.53,12.5-100.42,16.65-142.25-11.45-36.5-23.18-52.11-67.3-53.89-108.77-2.19.82-6.57,2.46-8.76,3.24C1518.69,1087.36,1528.5,1130,1556.7,1158.08Z"/><path class="cls-34" d="M1784.73,1087.36c-30.3,15.29-58.63,37.64-94,38.87,2.14,4.61,4.29,9.27,6.39,14C1730,1132.21,1770.27,1121.76,1784.73,1087.36Z"/><path class="cls-35" d="M1567.33,1227.06c-3.65,8.08-7.35,16.2-11.09,24.28,11,3.46,22.22,6.29,33.35,9.44-4.83,1.46-9.67,2.92-14.5,4.2,10.49-.18,21.07,0,31.61.77,2.28-9.12,4.66-18.25,7-27.32-1.78-.37-5.38-1.1-7.16-1.51C1593.38,1234,1580.15,1231.31,1567.33,1227.06Z"/><path class="cls-36" d="M1606.7,1265.75c-10.54-.73-21.12-1-31.61-.77a440.73,440.73,0,0,0-108.27,24.54c-37.37,13-72.54,31.17-108.86,46.72-49.59,21.36-101.15,39.88-155,46.18-34.9,5.61-70.31,5-105.35,2-2.46,0-7.34,0-9.81,0,8,5,16.06,10.08,24.23,14.92-8.76,2.64-17.38,5.61-26.23,7.93,78.65,15.06,160.18,1.1,234.64-26,82-29.06,158-78.52,246.24-87.42,49.82-4.79,102.65-5.52,147.64-30.16C1678.42,1265.66,1642.52,1270.91,1606.7,1265.75Z"/><path class="cls-37" d="M1087.77,1384.38c2.47,0,7.35,0,9.81,0-54.47-10.13-108.13-27.1-156.12-55.16-6.67,4.52-13.28,9.13-19.9,13.74,50.19,30.93,105.49,56,164.21,64.23,8.85-2.32,17.47-5.29,26.23-7.93C1103.83,1394.46,1095.8,1389.4,1087.77,1384.38Z"/></g></g></svg>