<svg xmlns="http://www.w3.org/2000/svg" viewBox="0 0 128.48 128.48"><defs><style>.cls-1{fill:#fff;}.cls-2{fill:#818484;}</style></defs><g id="Layer_2" data-name="Layer 2"><g id="Layer_1-2" data-name="Layer 1"><circle class="cls-1" cx="64.24" cy="64.24" r="64.24"/><circle class="cls-2" cx="44.78" cy="101.32" r="4.59"/><circle class="cls-2" cx="37.78" cy="94.58" r="8.29"/><circle class="cls-2" cx="31.79" cy="28.82" r="4.5"/><circle class="cls-2" cx="52.69" cy="109.13" r="3.3"/><circle class="cls-2" cx="21.31" cy="74.81" r="4.5"/><circle class="cls-2" cx="65.39" cy="44.61" r="20.71"/><circle class="cls-2" cx="48.11" cy="57.03" r="16.32"/><circle class="cls-2" cx="90.71" cy="53.67" r="13.63"/><circle class="cls-2" cx="64.43" cy="72.33" r="8.44"/><circle class="cls-2" cx="71.26" cy="86.86" r="10.02"/><circle class="cls-2" cx="83.09" cy="69.87" r="15.59"/><circle class="cls-2" cx="75.98" cy="98.49" r="7.12"/><path class="cls-2" d="M64,68.12c-4.59-5.24-8.78-10-7.62-15.24,1.23-5.56,7.94-8.84,12.83-9.62,9.85-1.57,23,5.32,23.26,15.44C92.69,68.41,81,77,73,75.34,69.67,74.64,67.6,72.27,64,68.12Z"/></g></g></svg>