<svg xmlns="http://www.w3.org/2000/svg" viewBox="0 0 57.08 103.33"><defs><style>.cls-1{fill:#434444;}.cls-2{fill:#231f20;}</style></defs><g id="Layer_2" data-name="Layer 2"><g id="Layer_1-2" data-name="Layer 1"><g id="Layer_2-2" data-name="Layer 2"><g id="Layer_56" data-name="Layer 56"><path class="cls-1" d="M28.55,0A28.56,28.56,0,0,0,1.3,37.08c.22.73.48,1.46.77,2.16h0l26.59,64.09L55,39.24h0c.29-.71.55-1.43.78-2.17A28.56,28.56,0,0,0,28.55,0Zm0,54.46A26.08,26.08,0,1,1,54.63,28.38,26.08,26.08,0,0,1,28.55,54.46Z"/><path class="cls-2" d="M40.22,17.94h0A16.16,16.16,0,0,0,37,15.46a14.13,14.13,0,0,0-8.91-1.93,4.31,4.31,0,0,0-1,.08,14.31,14.31,0,0,1,7.59-2.48.82.82,0,0,0,.81-.73.81.81,0,0,0-.6-.9,18.2,18.2,0,0,0-17.57,5.06A18.7,18.7,0,0,0,11.68,26.9a15.39,15.39,0,0,0,4.41,11.91,16,16,0,0,0,3.3,2.49,14.1,14.1,0,0,0,8.92,1.93,3.84,3.84,0,0,0,1-.09,14.21,14.21,0,0,1-7.58,2.49.83.83,0,0,0-.22,1.63,17,17,0,0,0,4.37.6,18.87,18.87,0,0,0,13.2-5.66A18.75,18.75,0,0,0,44.7,29.86,15.74,15.74,0,0,0,40.22,17.94Zm-7,15.56A7.22,7.22,0,1,1,23,23.3h0A7.21,7.21,0,1,1,33.2,33.5Z"/></g></g></g></g></svg>