<svg xmlns="http://www.w3.org/2000/svg" viewBox="0 0 130.48 130.48"><defs><style>.cls-1{fill:#818383;stroke:#fff;stroke-miterlimit:10;stroke-width:2px;}.cls-2{fill:#fff;}</style></defs><g id="Layer_2" data-name="Layer 2"><g id="Layer_1-2" data-name="Layer 1"><circle class="cls-1" cx="65.24" cy="65.24" r="64.24"/><circle class="cls-2" cx="45.78" cy="102.32" r="4.59"/><circle class="cls-2" cx="38.78" cy="95.58" r="8.29"/><circle class="cls-2" cx="32.79" cy="29.82" r="4.5"/><circle class="cls-2" cx="53.69" cy="110.13" r="3.3"/><circle class="cls-2" cx="22.31" cy="75.81" r="4.5"/><circle class="cls-2" cx="66.39" cy="45.61" r="20.71"/><circle class="cls-2" cx="49.11" cy="58.03" r="16.32"/><circle class="cls-2" cx="91.71" cy="54.67" r="13.63"/><circle class="cls-2" cx="65.43" cy="73.33" r="8.44"/><circle class="cls-2" cx="72.26" cy="87.86" r="10.02"/><circle class="cls-2" cx="84.09" cy="70.87" r="15.59"/><circle class="cls-2" cx="76.98" cy="99.49" r="7.12"/><path class="cls-2" d="M65,69.12c-4.59-5.24-8.78-10-7.62-15.24,1.23-5.56,7.94-8.84,12.83-9.62,9.85-1.57,23,5.32,23.26,15.44C93.69,69.41,82,78,74,76.34,70.67,75.64,68.6,73.27,65,69.12Z"/></g></g></svg>